<svg xmlns="http://www.w3.org/2000/svg" xmlns:xlink="http://www.w3.org/1999/xlink" version="1.1" width="1000" height="1000" viewBox="0 0 1000 1000" xml:space="preserve">
<desc>Created with Fabric.js 3.5.0</desc>
<defs>
</defs>
<rect x="0" y="0" width="100%" height="100%" fill="#000000"/>
<g transform="matrix(-52.3977 -54.7145 54.7145 -52.3977 500 499.9998)" id="415302">
<path style="stroke: none; stroke-width: 1; stroke-dasharray: none; stroke-linecap: butt; stroke-dashoffset: 0; stroke-linejoin: miter; stroke-miterlimit: 4; is-custom-font: none; font-file-url: none; fill: rgb(153,51,204); fill-rule: nonzero; opacity: 1;" vector-effect="non-scaling-stroke" transform=" translate(-7, -7)" d="m 5.4305456 3.2785788 c -0.0703 -0.084 0.0351 -0.5157 0.19225 -0.7807 c 0.0938 -0.1617 0.41497 -0.49 0.49701 -0.5111 c 0.12894 -0.03 0.18294 0.1172 0.068 0.1899 c -0.28836 0.1899 -0.50644 0.5463 -0.56742 0.9238 c -0.0141 0.082 -0.0351 0.1617 -0.0515 0.1805 c -0.035 0.042 -0.10066 0.042 -0.13825 0 z m 0.49237 0.023 c -0.0727 -0.089 0.0399 -0.4688 0.20167 -0.6823 c 0.0751 -0.096 0.25787 -0.2438 0.30477 -0.2438 c 0.0187 0 0.0492 0.028 0.0703 0.061 c 0.0398 0.059 0.0398 0.059 -0.10555 0.1969 c -0.1571 0.1525 -0.27196 0.3563 -0.2978 0.537 c -0.009 0.059 -0.0258 0.1219 -0.0375 0.1383 c -0.0327 0.04 -0.10077 0.035 -0.13591 -0.01 z m 1.55215 0.8981 c -0.054 -0.054 -0.0282 -0.1172 0.10077 -0.2345 c 0.14535 -0.1313 0.26266 -0.3471 0.28837 -0.5229 c 0.0211 -0.1453 0.0891 -0.1993 0.16886 -0.1337 c 0.054 0.042 0.054 0.049 0.0258 0.1946 c -0.0446 0.225 -0.13359 0.3892 -0.3071 0.5674 c -0.15245 0.1549 -0.21808 0.1877 -0.27673 0.1291 z m 0.30012 0.4313 c -0.0446 -0.014 -0.0703 -0.052 -0.0703 -0.1007 c 0 -0.021 0.0633 -0.087 0.1407 -0.1477 c 0.25322 -0.1994 0.43604 -0.5134 0.49469 -0.8488 c 0.0164 -0.089 0.0399 -0.1759 0.0515 -0.1899 c 0.0328 -0.045 0.12894 -0.038 0.15477 0.012 c 0.0282 0.054 -0.0211 0.3424 -0.0915 0.5275 c -0.12906 0.3399 -0.54158 0.7948 -0.67995 0.7479 z m 3.9858104 1.4771 c -0.204 -0.2555 -0.52751 -0.4408 -0.87685 -0.497 c -0.15 -0.024 -0.20167 -0.054 -0.20167 -0.1172 c 0 -0.1148 0.2133 -0.1195 0.52052 -0.014 c 0.23914 0.084 0.40555 0.1899 0.60955 0.3915 c 0.18514 0.1853 0.23449 0.2743 0.18281 0.3376 c -0.0562 0.068 -0.12416 0.04 -0.23436 -0.1009 z m -0.40567 0.2766 c -0.15245 -0.1594 -0.30722 -0.2461 -0.51343 -0.2883 c -0.1571 -0.033 -0.2133 -0.082 -0.16885 -0.15 c 0.0211 -0.033 0.0587 -0.042 0.16885 -0.04 c 0.1969 0 0.4549 0.1266 0.62596 0.3001 c 0.14767 0.1525 0.17351 0.211 0.11485 0.2743 c -0.0211 0.024 -0.0516 0.045 -0.0656 0.045 c -0.014 -0.0002 -0.0867 -0.064 -0.16175 -0.1409 z m -0.9191 1.6554 c -0.23449 -0.059 -0.4548904 -0.1969 -0.5955904 -0.3752 c -0.0774 -0.096 -0.089 -0.1524 -0.0444 -0.1969 c 0.0539 -0.054 0.11718 -0.026 0.2414604 0.1079 c 0.13837 0.15 0.33294 0.2556 0.52053 0.2814 c 0.13592 0.021 0.18992 0.087 0.13359 0.1641 c -0.0398 0.059 -0.0844 0.061 -0.25555 0.019 z m -0.0234 0.4899 c -0.23216 -0.042 -0.41032 -0.1148 -0.6095404 -0.2485 c -0.17118 -0.1149 -0.35865 -0.3025 -0.42208 -0.4221 c -0.0282 -0.052 -0.0282 -0.068 0.002 -0.1125 c 0.0563 -0.08 0.1102 -0.059 0.23914 0.1007 c 0.20632 0.2579 0.5415804 0.4455 0.8862804 0.4947 c 0.13604 0.021 0.17351 0.045 0.17351 0.1195 c 0 0.045 -0.0656 0.1102 -0.0984 0.1008 c -0.005 0.0002 -0.0797 -0.016 -0.17119 -0.033 z m -6.0747704 -2.4664 c -0.24612 -0.2697 -0.52751 -0.4173 -0.88163 -0.4642 c -0.12428 -0.016 -0.1664 -0.061 -0.13359 -0.1454 c 0.0258 -0.07 0.13359 -0.07 0.38216 -0.01 c 0.28604 0.073 0.48772 0.1923 0.72453 0.4244 c 0.18759 0.1853 0.20632 0.2133 0.19935 0.2838 c -0.005 0.063 -0.0187 0.077 -0.0656 0.084 c -0.047 0 -0.0939 -0.033 -0.22518 -0.1759 z m -0.36587 0.3142 c -0.16641 -0.1664 -0.2978 -0.2392 -0.51343 -0.2837 c -0.15477 -0.031 -0.20167 -0.077 -0.1571 -0.1595 c 0.0469 -0.091 0.37751 -0.023 0.60955 0.1243 c 0.14767 0.096 0.3235 0.2907 0.3235 0.3634 c 0 0.047 -0.0563 0.1031 -0.1031 0.1031 c -0.007 0 -0.0796 -0.066 -0.15942 -0.1476 z m -0.93073 1.6575 c -0.19935 -0.054 -0.39159 -0.1688 -0.52983 -0.3188 c -0.12894 -0.1407 -0.15245 -0.1969 -0.10078 -0.2486 c 0.0563 -0.056 0.12429 -0.028 0.23681 0.1008 c 0.12894 0.1453 0.33527 0.2602 0.52984 0.2907 c 0.15943 0.026 0.21098 0.096 0.12894 0.1758 c -0.0446 0.045 -0.0986 0.045 -0.26498 0.0001 z m 0.0422 0.5042 c -0.37983 -0.052 -0.72452 -0.2486 -0.99415 -0.5627 c -0.10555 -0.1243 -0.12894 -0.1993 -0.0774 -0.2509 c 0.0515 -0.051 0.0891 -0.028 0.29534 0.1805 c 0.17119 0.1758 0.23682 0.2251 0.40323 0.3048 c 0.13126 0.063 0.26265 0.1055 0.38216 0.1243 c 0.13604 0.021 0.19224 0.042 0.20865 0.073 c 0.0541 0.1032 -0.035 0.1547 -0.21784 0.1314 z m 2.37268 2.0937002 c -0.0282 -0.054 0.0211 -0.3424 0.0891 -0.5229 c 0.10078 -0.2649002 0.39857 -0.6377002 0.58383 -0.7338002 c 0.061 -0.031 0.0751 -0.031 0.11964 0 c 0.0797 0.056 0.0587 0.1125 -0.0797 0.2204 c -0.25322 0.1946 -0.43138 0.4901002 -0.50179 0.8323002 c -0.0211 0.1031 -0.0469 0.2017 -0.0563 0.2181 c -0.0282 0.042 -0.12893 0.035 -0.15477 -0.014 z m 0.51342 0.047 c -0.0539 -0.042 -0.0539 -0.049 -0.0258 -0.1946 c 0.0422 -0.2156 0.12894 -0.3798 0.28836 -0.5510002 c 0.14768 -0.1571 0.22972 -0.1993 0.28837 -0.15 c 0.0633 0.054 0.0375 0.1172 -0.10078 0.2463002 c -0.14999 0.1383 -0.25555 0.3329 -0.28138 0.5205 c -0.0211 0.1406 -0.089 0.1921 -0.16874 0.1288 z m 1.5404 0.8909 c -0.0234 -0.024 -0.0399 -0.054 -0.0399 -0.066 c 0 -0.012 0.0633 -0.082 0.1407 -0.1571 c 0.15942 -0.1524 0.24624 -0.3071 0.28836 -0.5134 c 0.0328 -0.1571 0.082 -0.2133 0.15245 -0.1689 c 0.0984 0.063 0.0328 0.3939 -0.12894 0.6377 c -0.0844 0.1266 -0.28836 0.3096 -0.34469 0.3096 c -0.0164 0 -0.0468 -0.019 -0.068 -0.042 z m 0.27196 0.4244 c -0.0164 0 -0.0305 -0.04 -0.0305 -0.073 c 0 -0.049 0.0328 -0.089 0.13371 -0.1688 c 0.2438 -0.1923 0.42208 -0.483 0.47596 -0.7738 c 0.0422 -0.2204 0.0563 -0.2626 0.1009 -0.2907 c 0.13126 -0.084 0.16175 0.1923 0.0563 0.4994 c -0.10322 0.2954 -0.27906 0.5462 -0.51587 0.7315 c -0.108 0.087 -0.15478 0.1031 -0.22053 0.075 z m -1.16289 0.9636 c -0.31188 -0.056 -0.64714 -0.1923 -0.90734 -0.3681 c -0.15478 -0.1055 -0.45955 -0.4057 -0.57441 -0.5674 c -0.82995 -1.1652 -0.40799 -2.7971002 0.88628 -3.4231002 c 0.11964 -0.056 0.29547 -0.1242 0.39159 -0.1476 c 0.16653 -0.045 0.17584 -0.049 0.17119 -0.1102 c -0.0164 -0.2133 -0.30478 -0.6073 -0.54869 -0.7551 c -0.13372 -0.08 -0.41033 -0.1875 -0.43151 -0.1687 c -0.005 0.01 -0.0375 0.1031 -0.068 0.2133 c -0.0328 0.1102 -0.0867 0.2627 -0.11963 0.3376 c -0.21576 0.4877 -0.72208 0.9753 -1.2262 1.1816 c -0.32118 0.1313 -0.45012 0.1525 -0.89558 0.15 c -0.37751 0 -0.42673 0 -0.6213 -0.066 c -1.37865 -0.422 -2.05860201 -1.9178 -1.45371 -3.1979 c 0.13359 -0.2813 0.26498 -0.4642 0.49469 -0.6869 c 0.21098 -0.2017 0.32596 -0.286 0.56032 -0.4009 c 1.15359 -0.579 2.55329 -0.1008 3.11827 1.0668 c 0.0563 0.1196 0.12428 0.2955 0.14767 0.3916 c 0.0446 0.1688 0.0492 0.1758 0.11253 0.1712 c 0.0375 0 0.15477 -0.047 0.25788 -0.1008 c 0.14302 -0.07 0.22506 -0.1313 0.33293 -0.2461 c 0.14302 -0.15 0.29302 -0.4173 0.32351 -0.5698 c 0.0141 -0.068 0.009 -0.073 -0.0867 -0.098 c -0.43139 -0.1079 -0.77143 -0.2907 -1.0762 -0.5791 c -0.33294 -0.3142 -0.54624 -0.6659 -0.66122 -1.0878 c -0.0469 -0.1712 -0.0539 -0.2486 -0.0515 -0.6072 c 0 -0.3776 0.005 -0.4268 0.0656 -0.619 c 0.24857 -0.8136 0.84636 -1.388 1.67399 -1.613 c 0.26963 -0.0730001 0.80424 -0.0730001 1.09261 0 c 0.24856 0.063 0.59558 0.2204 0.79713 0.3657 c 0.17351 0.1243 0.4642 0.4244 0.57906 0.6003 c 0.67763 1.0269 0.44779 2.3844 -0.52518 3.1207 c -0.22506 0.1712 -0.54159 0.3258 -0.79016 0.3914 c -0.16885 0.045 -0.17583 0.049 -0.17118 0.1126 c 0.002 0.037 0.0469 0.1547 0.10077 0.2578 c 0.0704 0.1431 0.13127 0.2251 0.24392 0.333 c 0.15282 0.1425 0.42245 0.295 0.57012 0.3231 c 0.0727 0.014 0.0751 0.012 0.10077 -0.087 c 0.11486 -0.4618 0.29547 -0.783 0.62131 -1.1136 c 0.33061 -0.333 0.64003 -0.5135 1.0785204 -0.6331 c 0.13371 -0.035 0.24147 -0.045 0.5744 -0.042 c 0.37751 0 0.42673 0 0.61898 0.066 c 0.36342 0.1102 0.68228 0.293 0.94726 0.5393 c 0.72685 0.6799 0.93317 1.7608 0.51109 2.654 c -0.13359 0.2814 -0.21795 0.4009 -0.43371 0.6283 c -0.29069 0.3001 -0.58848 0.4854 -0.97762 0.6072 c -0.91677 0.2907 -1.9366404 -0.037 -2.5204704 -0.8112 c -0.17119 -0.2251 -0.32596 -0.5416 -0.39159 -0.7902 c -0.0446 -0.1688 -0.0492 -0.1758 -0.11253 -0.1711 c -0.0375 0 -0.15478 0.047 -0.25788 0.1007 c -0.14302 0.07 -0.22506 0.1313 -0.33293 0.2463 c -0.14302 0.15 -0.29302 0.4173 -0.32351 0.5697 c -0.0141 0.068 -0.009 0.073 0.0867 0.099 c 0.0562 0.014 0.15477 0.042 0.22041 0.063 c 0.61187 0.1969 1.15591 0.6987 1.4068 1.2941 c 0.1407 0.3353002 0.16408 0.4642002 0.16176 0.9168002 c 0 0.3775 -0.005 0.4267 -0.0656 0.619 c -0.3518 1.1512 -1.46779 1.8499 -2.6237 1.6413 z m 0.87452 -0.3963 c 0.22041 -0.056 0.60024 -0.2485 0.75502 -0.3844 c 0.4713 -0.4057 0.69869 -0.8933 0.69869 -1.4912 c 0 -0.7151002 -0.37041 -1.3505002 -0.98706 -1.6975002 c -0.14069 -0.077 -0.40089 -0.1759 -0.54158 -0.2017 c -0.0774 -0.014 -0.0891 -0.012 -0.0984 0.037 c -0.0469 0.2181 -0.10788 0.9237 -0.10788 1.2661002 l 0 0.204 l 0.0915 0.091 c 0.1969 0.1969 0.17583 0.4806 -0.0492 0.6471 c -0.0656 0.049 -0.25788 0.08 -0.35633 0.054 c -0.0844 -0.021 -0.22506 -0.1525 -0.26265 -0.2415 c -0.0703 -0.1641 -0.0118 -0.4032 0.11963 -0.49 c 0.0563 -0.038 0.0587 -0.047 0.0587 -0.2884 c 0 -0.3893002 -0.0774 -1.2028002 -0.11718 -1.2708002 c -0.0234 -0.035 -0.33293 0.049 -0.52285 0.1454 c -1.10436 0.5533 -1.4302 1.9413002 -0.68926 2.9167002 c 0.13836 0.1805 0.3611 0.3798 0.5651 0.5018 c 0.14767 0.089 0.45722 0.2017 0.64713 0.2345 c 0.17547 0.033 0.61163 0.014 0.79677 -0.033 z m -3.66928 -3.6785002 c 0.21808 -0.061 0.54624 -0.2322 0.71743 -0.3752 c 0.30012 -0.2463 0.55567 -0.6448 0.64481 -1.0081 c 0.0305 -0.1243 0.0328 -0.1641 0.0117 -0.1782 c -0.0633 -0.037 -0.91199 -0.1149 -1.2966 -0.1172 l -0.204 0 l -0.0891 0.094 c -0.16175 0.1689 -0.39159 0.1805 -0.57208 0.03 c -0.0938 -0.08 -0.13836 -0.1853 -0.13836 -0.3235 c 0 -0.3096 0.33061 -0.5065 0.60954 -0.3634 c 0.0515 0.026 0.11021 0.073 0.13127 0.1055 c 0.0375 0.056 0.0469 0.059 0.28836 0.059 c 0.38927 0 1.20281 -0.077 1.27077 -0.1172 c 0.0187 -0.012 0.0117 -0.068 -0.0235 -0.1969 c -0.16641 -0.6026 -0.63538 -1.1019 -1.22852 -1.3059 c -0.85579 -0.2955 -1.79828 0.037 -2.27656 0.8065 c -0.34444 0.553 -0.38669 1.2446 -0.10996 1.8354 c 0.25323 0.5393 0.7151 0.9191 1.2895 1.0645 c 0.22506 0.059 0.7549 0.052 0.9753 -0.01 z m 7.3221604 -0.026 c 0.89093 -0.211 1.53341 -1.0762 1.47476 -1.9858 c -0.0164 -0.265 -0.0727 -0.4783 -0.18061 -0.7105 c -0.11253 -0.2415 -0.19224 -0.3563 -0.37751 -0.5439 c -0.37518 -0.3798 -0.8346 -0.5698 -1.37387 -0.5698 c -0.7502304 0 -1.4184304 0.4173 -1.7420604 1.0855 c -0.11253 0.2345 -0.18527 0.5042 -0.14302 0.5323 c 0.0633 0.038 0.91444 0.1149 1.2989304 0.1172 c 0.20399 0 0.20865 0 0.26963 -0.073 c 0.0726 -0.087 0.2204 -0.1618 0.32118 -0.1618 c 0.10787 0 0.25555 0.08 0.32828 0.1736 c 0.068 0.091 0.1009 0.2602 0.0726 0.3751 c -0.0211 0.084 -0.15245 0.2251 -0.24146 0.2627 c -0.16409 0.07 -0.40335 0.012 -0.49004 -0.1196 c -0.0375 -0.056 -0.0469 -0.059 -0.28837 -0.059 c -0.3891404 0 -1.2003604 0.075 -1.2684404 0.1172 c -0.0398 0.024 0.0234 0.265 0.13127 0.49 c 0.27906 0.5932 0.83228 1.0058 1.4747604 1.1043 c 0.18061 0.026 0.54404 0.01 0.73396 -0.035 z m -4.4617704 -3.6974 c 0.0305 -0.1361 0.082 -0.6893 0.0961 -1.0575 l 0.0164 -0.408 l -0.0961 -0.091 c -0.17351 -0.1641 -0.18759 -0.3939 -0.0351 -0.5744 c 0.0797 -0.094 0.18526 -0.1384 0.32351 -0.1384 c 0.30954 0 0.50644 0.3306 0.36342 0.6095 c -0.0258 0.052 -0.0726 0.1102 -0.10555 0.1313 c -0.0562 0.038 -0.0587 0.047 -0.0587 0.3001 c 0 0.3963 0.0751 1.1864 0.11718 1.2567 c 0.0235 0.04 0.26498 -0.024 0.49004 -0.1313 c 0.84171 -0.3962 1.28007 -1.3059 1.06677 -2.2132 c -0.054 -0.2297 -0.24147 -0.5956 -0.4009 -0.7831 c -0.24857 -0.2977 -0.60955 -0.5251 -0.98705 -0.6284 c -0.24612 -0.066 -0.71743 -0.07 -0.95424 -0.01 c -0.47363 0.1243 -0.89791 0.4244 -1.15358 0.8182 c -0.23915 0.3658 -0.32119 0.6729 -0.3071 1.1419 c 0.0117 0.3516 0.0633 0.5462 0.2204 0.8463 c 0.22739 0.4314 0.68461 0.7995 1.16057 0.9355 c 0.19934 0.059 0.22983 0.056 0.24391 0 z" stroke-linecap="round"/>
</g>
</svg>